HIERARCHY
ROOT hip
{
	OFFSET 0.000000 0.000000 0.000000 
	CHANNELS 6 Xposition Yposition Zposition Xrotation Zrotation Yrotation
	JOINT abdomen
	{
		OFFSET 0.000000 3.402643 0.000000 
		CHANNELS 3 Xrotation Zrotation Yrotation
		JOINT chest
		{
			OFFSET 0.000000 8.438565 -0.680529 
			CHANNELS 3 Xrotation Zrotation Yrotation
			JOINT neck
			{
				OFFSET 0.000000 10.207942 -0.272212 
				CHANNELS 3 Xrotation Zrotation Yrotation
				JOINT head
				{
					OFFSET 0.000000 3.130431 0.000000 
					CHANNELS 3 Xrotation Zrotation Yrotation
					End Site
					{
						OFFSET 0.000000 3.130435 0.000000 
					}
				}
			}
			JOINT lCollar
			{
				OFFSET 3.470700 6.669187 -0.816635 
				CHANNELS 3 Yrotation Zrotation Xrotation
				JOINT lShldr
				{
					OFFSET 3.198488 0.000000 0.000000 
					CHANNELS 3 Zrotation Yrotation Xrotation
					JOINT lForeArm
					{
						OFFSET 10.139888 0.000000 0.000000 
						CHANNELS 3 Yrotation Zrotation Xrotation
						JOINT lHand
						{
							OFFSET 8.370511 0.000000 0.000000 
							CHANNELS 3 Zrotation Yrotation Xrotation
							End Site
							{
								OFFSET 4.083176 0.000000 0.000000 
							}
						}
					}
				}
			}
			JOINT rCollar
			{
				OFFSET -3.470700 6.669187 -0.816635 
				CHANNELS 3 Yrotation Zrotation Xrotation
				JOINT rShldr
				{
					OFFSET -3.198488 0.000000 0.000000 
					CHANNELS 3 Zrotation Yrotation Xrotation
					JOINT rForeArm
					{
						OFFSET -10.139888 0.000000 0.000000 
						CHANNELS 3 Yrotation Zrotation Xrotation
						JOINT rHand
						{
							OFFSET -8.370511 0.000000 0.000000 
							CHANNELS 3 Zrotation Yrotation Xrotation
							End Site
							{
								OFFSET -4.083176 0.000000 0.000000 
							}
						}
					}
				}
			}
		}
	}
	JOINT lThigh
	{
		OFFSET 5.308129 -1.633274 1.361059 
		CHANNELS 3 Xrotation Zrotation Yrotation
		JOINT lShin
		{
			OFFSET -2.041588 -20.007561 0.000000 
			CHANNELS 3 Xrotation Zrotation Yrotation
			JOINT lFoot
			{
				OFFSET 0.000000 -19.190928 -1.224953 
				CHANNELS 3 Xrotation Yrotation Zrotation
				End Site
				{
					OFFSET 0.000000 -2.449906 4.627600 
				}
			}
		}
	}
	JOINT rThigh
	{
		OFFSET -5.308129 -1.633274 1.361059 
		CHANNELS 3 Xrotation Zrotation Yrotation
		JOINT rShin
		{
			OFFSET 2.041588 -20.007561 0.000000 
			CHANNELS 3 Xrotation Zrotation Yrotation
			JOINT rFoot
			{
				OFFSET 0.000000 -19.190928 -1.224953 
				CHANNELS 3 Xrotation Yrotation Zrotation
				End Site
				{
					OFFSET 0.000000 -2.449906 4.627600 
				}
			}
		}
	}
}
MOTION
Frames: 18
Frame Time: 0.024000
-245.113632 55.900360 280.801483 -13.234063 2.357631 -10.856949 32.803215 -2.352119 4.871445 -20.839844 0.000000 0.000000 -29.658844 11.835738 54.854996 -2.520886 -1.254971 0.218336 -4.754609 -0.109180 -0.002653 -46.933102 -28.597298 -2.494379 -85.875290 -17.685635 -4.547581 -9.992122 19.192467 -11.282382 4.754609 0.109180 -0.002671 62.252399 1.073980 -10.577003 99.642647 5.123960 11.097098 12.982882 11.222099 19.413424 -17.576162 -18.224457 -29.367502 3.407786 12.006478 -11.931596 49.896408 15.851798 -35.543118 3.132419 -15.543272 -18.684566 40.098728 18.144554 -9.724322 -27.215183 0.507759 -9.193203 
-243.692642 57.263485 279.838928 -12.778878 4.743379 -1.298636 33.008018 -3.359349 4.863705 -20.839844 0.000000 0.000000 -20.843576 16.533241 70.821838 -2.520886 -1.254971 0.218336 -4.754609 -0.109180 -0.002653 -49.587875 -33.481388 0.276959 -78.854446 -18.309628 -0.107281 -10.040720 15.863525 -7.717971 4.754609 0.109180 -0.002671 61.233444 -5.657485 -13.156458 101.215866 4.510890 10.999002 10.842854 12.578338 19.275175 -14.501653 -17.000940 -34.120655 5.575924 10.828733 -15.455296 52.522110 19.936409 -38.000439 5.320813 -16.795282 -18.491898 31.805029 18.579329 -13.887156 -17.791842 -6.765284 -4.776546 
-242.240662 58.653503 278.870270 -12.048215 6.772745 7.445686 32.999081 -5.288717 5.159642 -20.839844 0.000000 0.000000 -13.597295 20.277576 81.797050 -2.520886 -1.254971 0.218336 -4.754609 -0.109180 -0.002653 -54.141754 -35.962601 3.901305 -71.542587 -18.682247 4.706419 -10.214988 13.607777 -4.166684 4.754609 0.109180 -0.002671 63.405712 -12.712315 -15.856933 100.372833 3.090158 12.495257 7.510084 15.273469 20.974693 -11.415674 -14.421485 -34.321877 5.828651 10.628977 -15.494373 55.873390 20.453978 -37.660614 7.740908 -15.875255 -18.494608 22.527273 14.086379 -18.263435 -6.455736 -11.427951 1.004403 
-240.777542 59.771931 277.883850 -10.768146 7.926188 16.125555 32.194828 -6.276134 5.090367 -20.839844 0.000000 0.000000 -9.946061 22.652678 84.081711 -2.520886 -1.254971 0.218336 -4.754609 -0.109180 -0.002653 -60.952751 -35.449459 7.845810 -63.592560 -18.034437 9.705097 -8.853513 12.457607 -0.421651 4.754609 0.109180 -0.002671 65.360924 -19.627304 -17.772705 97.711494 3.395191 13.473022 1.619769 17.842649 21.587074 -9.042645 -10.779460 -27.615219 3.368851 11.723350 -11.603290 57.131012 15.536455 -30.832279 10.560837 -13.472711 -16.575060 12.779398 8.957242 -17.512550 4.593100 -9.095192 2.875942 
-239.285492 60.256763 276.974579 -9.834890 8.844820 25.494755 31.850513 -6.067822 3.601993 -20.839844 0.000000 0.000000 -10.387748 24.225708 77.579979 -2.520886 -1.254971 0.218336 -4.754609 -0.109180 -0.002653 -68.942390 -32.520229 10.659723 -54.545876 -15.437535 14.383657 -6.727187 11.715702 3.776774 4.754609 0.109180 -0.002671 66.814507 -24.136047 -18.630753 93.306244 4.492716 13.690105 -2.714706 18.118479 20.866146 -8.191582 -7.212320 -23.597025 2.128750 11.810368 -9.294504 58.661980 13.896325 -28.307526 15.558681 -11.177705 -14.700728 4.275256 7.370407 -9.469128 10.792890 3.127279 0.456435 
-237.682755 60.125782 276.143524 -9.121792 10.599790 35.603287 32.310856 -5.877899 0.500691 -20.839844 0.000000 0.000000 -13.374776 25.226048 66.514076 -2.520886 -1.254971 0.218336 -4.754609 -0.109180 -0.002653 -76.485397 -27.912985 11.060671 -45.166672 -11.112537 16.776085 -5.256204 11.283020 7.240939 4.754609 0.109180 -0.002671 69.194107 -25.606308 -19.588236 86.318672 3.810490 15.308078 -1.704906 19.704567 22.672623 -8.016966 -4.920979 -22.791510 2.187755 12.109187 -8.583233 60.658813 14.570301 -29.481859 18.400763 -10.759266 -12.916813 5.711272 7.496192 -0.694533 8.406475 12.350853 -1.894498 
-236.012985 59.571903 275.261688 -8.591105 12.112767 45.090038 33.354897 -6.190702 -2.192042 -20.839844 0.000000 0.000000 -17.402710 26.291374 53.653191 -2.520886 -1.254971 0.218336 -4.754609 -0.109180 -0.002653 -81.794495 -22.389870 7.774338 -36.711796 -5.844536 15.120734 -4.991427 10.661018 9.344371 4.754609 0.109180 -0.002671 72.824692 -25.077965 -20.805643 78.569679 1.466591 16.674196 3.509609 20.989862 25.611818 -8.474388 -2.049571 -21.241962 2.021559 12.319279 -7.967705 62.229252 15.674978 -28.230608 19.295870 -9.238737 -7.100212 10.365299 4.584918 1.808495 1.119077 6.043185 -1.645595 
-234.404663 58.582428 274.271698 -7.558605 12.346314 54.478329 33.791122 -5.674532 -3.969498 -20.839844 0.000000 0.000000 -22.100416 26.005447 40.738152 -2.520886 -1.254971 0.218336 -4.754609 -0.109180 -0.002653 -84.626915 -17.928154 1.449878 -28.027981 -0.361944 9.070367 -6.230675 10.261010 10.338820 4.754609 0.109180 -0.002671 75.476128 -24.229481 -21.653799 72.040565 -0.445579 16.165398 8.499993 19.470449 26.234081 -11.427166 1.096102 -20.058685 2.118911 12.424194 -8.168905 63.871120 17.944901 -25.329803 17.984585 -6.101912 0.620618 16.970263 0.504696 -0.512885 -8.704269 -8.386817 0.568460 
-232.895325 57.400043 273.210663 -6.812064 10.862131 63.574730 33.269093 -2.834956 -4.538315 -20.839844 0.000000 0.000000 -26.690613 22.819050 30.241257 -2.520886 -1.254971 0.218336 -4.754609 -0.109180 -0.002653 -84.238564 -14.881652 4.605055 -17.869207 8.597189 6.055820 -11.121175 8.473406 -4.416712 4.754609 0.109180 -0.002671 76.059563 -23.284939 -22.119181 67.972176 -1.712633 14.988222 11.455859 15.845417 25.311199 -16.392609 4.823937 -15.849411 1.036154 11.695742 -7.256370 64.035194 17.787651 -16.926683 17.565584 -4.353897 1.502995 20.360117 0.823008 -4.727673 -17.156357 -14.032668 1.435209 
-231.349945 56.215118 272.021149 -7.604115 8.528975 69.882301 32.633610 1.860471 -2.282104 -20.839844 0.000000 0.000000 -30.656492 18.179110 23.375738 -2.520886 -1.254971 0.218336 -4.754609 -0.109180 -0.002653 -80.230286 -11.076265 3.086378 -10.851110 12.179979 1.730798 -15.058040 8.202349 -15.811615 4.754609 0.109180 -0.002671 75.369781 -22.083471 -22.288309 66.867172 -2.663922 14.670691 11.425038 12.607708 25.088041 -21.068851 10.320651 -11.061291 -1.082734 8.765227 -5.553017 63.578548 18.036201 -8.445545 18.587576 -5.154987 -2.830215 20.487816 4.813550 -6.911111 -22.804407 -10.996078 4.886817 
-229.686279 55.350040 270.805267 -8.470578 6.365925 73.116905 32.377644 4.867018 1.234860 -20.839844 0.000000 0.000000 -34.106804 14.322676 19.245621 -2.520886 -1.254971 0.218336 -4.754609 -0.109180 -0.002653 -72.916641 -4.425841 -3.994905 -10.850756 12.093909 -4.294005 -16.294546 9.929759 -21.162355 4.754609 0.109180 -0.002671 75.712669 -21.162943 -22.206448 70.548820 -3.213490 13.799597 10.617096 9.853396 23.407911 -23.830755 16.236479 -6.743083 -3.132601 4.538121 -2.848482 63.442600 20.070099 -0.816256 20.948849 -6.795022 -6.445826 17.623623 8.117720 -7.379287 -24.528015 -8.200667 8.735262 
-227.870300 55.142902 269.713715 -7.027818 5.757493 76.167091 32.948460 3.198665 2.093959 -20.839844 0.000000 0.000000 -36.926121 11.659520 16.272758 -2.520886 -1.254971 0.218336 -4.754609 -0.109180 -0.002653 -65.584419 4.318645 -14.889070 -15.722433 11.288879 -12.000284 -13.898186 11.451322 -19.527822 4.754609 0.109180 -0.002671 76.563393 -20.356009 -21.614990 76.441040 -2.984291 11.917095 9.366148 8.935423 19.828911 -23.446396 18.632185 -4.704123 -4.244210 1.199704 -0.471754 65.218750 22.929962 3.283057 24.965694 -8.641735 -8.054136 12.151758 8.429513 -8.475745 -22.655624 -9.675013 9.034372 
-225.529892 55.104832 268.446075 -4.490054 6.299124 78.442741 32.696880 0.082009 3.278119 -20.839844 0.000000 0.000000 -37.688484 8.423174 13.562284 -2.520886 -1.254971 0.218336 -4.754609 -0.109180 -0.002653 -59.493443 13.064690 -30.318144 -24.664282 8.934801 -21.124180 -8.989218 13.310089 -9.539274 4.754609 0.109180 -0.002671 76.399261 -20.135393 -20.936985 82.058319 -2.066216 9.602371 6.376809 9.778899 15.571459 -26.251308 15.992205 -7.174093 8.327901 1.758324 -1.373772 56.820740 23.708950 1.560348 28.188534 -11.297560 -9.337459 10.232354 5.921832 -8.004247 -15.431887 -12.346957 12.149107 
-222.604645 55.307896 266.725067 -1.279202 7.049042 81.699646 30.620728 -2.693444 4.187397 -20.839844 0.000000 0.000000 -35.385387 4.748018 9.401055 -2.520886 -1.254971 0.218336 -4.754609 -0.109180 -0.002653 -52.599232 18.955462 -35.319977 -33.610615 11.488091 -24.078497 -7.588234 13.288507 -10.746270 4.754609 0.109180 -0.002671 76.907547 -20.514715 -21.354830 88.563263 -2.371272 6.599546 5.277743 10.504056 10.714033 -28.342197 7.753265 -12.946419 23.740295 3.469400 -1.380093 35.176094 27.424520 -2.212869 32.746700 -13.494884 -10.873758 6.408822 1.625769 -8.703272 0.414632 -14.652617 17.460924 
-219.378845 55.527710 264.630310 1.815571 8.228346 85.015907 28.759926 -5.021663 5.541222 -20.839844 0.000000 0.000000 -31.651999 1.365126 4.243345 -2.520886 -1.254971 0.218336 -4.754609 -0.109180 -0.002653 -44.426411 20.593405 -37.368454 -43.208595 15.549018 -23.778303 -6.310865 13.057047 -11.491534 4.754609 0.109180 -0.002671 76.791771 -18.903584 -21.837212 93.795929 -4.153691 5.733840 5.091821 11.035632 8.987610 -24.639351 -1.324391 -18.528069 29.789497 3.251393 0.231311 16.981226 33.890224 -2.577379 35.894691 -15.820029 -12.991321 6.100551 -2.267525 -9.103416 19.605185 -15.150697 15.417107 
-216.220062 55.664284 262.377777 2.180124 9.778210 88.936142 27.935997 -2.226501 7.783139 -20.839844 0.000000 0.000000 -29.272900 -1.830692 -0.304983 -2.520886 -1.254971 0.218336 -4.754609 -0.109180 -0.002653 -35.369076 19.043037 -38.021400 -52.527111 18.300997 -21.099575 -3.640347 12.542368 -10.916306 4.754609 0.109180 -0.002671 72.894859 -14.470039 -21.341589 96.667870 -5.725003 7.128720 2.855639 11.406183 10.361060 -20.886122 -6.238508 -18.942471 34.402058 2.363085 2.269782 2.659376 33.078506 4.066684 42.826641 -17.899635 -10.638454 -3.207939 3.196654 -3.248552 43.271790 -19.033669 6.269564 
-213.548141 55.361713 260.435883 3.519847 11.648509 92.714615 28.841484 -1.661164 7.731467 -20.839844 0.000000 0.000000 -28.887709 -4.005375 -3.160279 -2.520886 -1.254971 0.218336 -4.754609 -0.109180 -0.002653 -24.099863 15.230639 -39.225487 -58.314877 19.987896 -18.142696 -0.787445 12.495025 -8.716573 4.754609 0.109180 -0.002671 66.808479 -9.191376 -20.594503 100.380859 -6.129514 7.235764 0.891705 10.056617 9.618741 -18.993713 -7.626894 -14.852067 39.590508 -3.182163 4.368360 -7.807711 25.980421 12.257290 24.469938 -18.797451 -8.122843 32.819164 -2.649061 2.787762 30.551054 -10.353668 -1.130491 
-211.213318 54.993633 258.498566 5.460319 12.892427 98.235428 30.261984 -1.874601 5.476370 -20.839844 0.000000 0.000000 -29.188902 -5.235839 -5.981266 -2.520886 -1.254971 0.218336 -4.754609 -0.109180 -0.002653 -11.239263 8.872192 -41.786362 -59.573708 20.665449 -15.915691 1.004551 12.160934 -5.541846 4.754609 0.109180 -0.002671 60.457241 -3.758931 -20.873079 104.275246 -6.986421 6.153225 -0.137145 7.929627 6.875807 -16.089922 -8.366702 -12.101146 42.373878 -9.752826 4.906417 -15.210171 18.763136 20.929190 11.704811 -19.292595 -6.300583 51.782238 -4.836463 5.044963 18.510662 -4.939005 -4.938437 
